PathFileType  4	(X/Y/Z) C:\Users\wagnerel85475\Documents\Thesis\opencap-core\Data\3375ffbc-daeb-4a43-b4f7-ac9899cd4c71\MarkerData\PreAugmentation
DataRate	CameraRate	NumFrames	NumMarkers	Units	OrigDataRate	OrigDataStartFrame	OrigNumFrames
60.0	60.0	12	20	m	60.0	71	282
Frame#	Time	Neck			RShoulder			RElbow			RWrist			LShoulder			LElbow			LWrist			midHip			RHip			RKnee			RAnkle			LHip			LKnee			LAnkle			LBigToe			LSmallToe			LHeel			RBigToe			RSmallToe			RHeel			
		X1	Y1	Z1	X2	Y2	Z2	X3	Y3	Z3	X4	Y4	Z4	X5	Y5	Z5	X6	Y6	Z6	X7	Y7	Z7	X8	Y8	Z8	X9	Y9	Z9	X10	Y10	Z10	X11	Y11	Z11	X12	Y12	Z12	X13	Y13	Z13	X14	Y14	Z14	X15	Y15	Z15	X16	Y16	Z16	X17	Y17	Z17	X18	Y18	Z18	X19	Y19	Z19	X20	Y20	Z20	

71	1.1666667	0.2566900	0.8102700	-0.1425600	0.2898100	0.8175300	0.0542800	0.2270000	0.5027100	0.1259600	0.3449700	0.2738700	0.1575800	0.2997600	0.8106700	-0.3283800	0.2602500	0.5191200	-0.4196200	0.3382500	0.2331300	-0.4591300	0.2591400	0.3309500	-0.1453700	0.2486400	0.3287000	-0.0131300	0.7877300	0.3349500	-0.0085400	0.6982700	-0.1785900	-0.0033500	0.2688000	0.3305700	-0.2729200	0.7662000	0.3203500	-0.3262000	0.6865200	-0.1711600	-0.3171800	0.8941900	-0.2209300	-0.3409300	0.8455200	-0.2206400	-0.3828800	0.6115200	-0.2305700	-0.3016600	0.8971000	-0.2302500	0.0266400	0.8421400	-0.2194100	0.0653100	0.6369000	-0.2245500	-0.0216900
72	1.1833333	0.2570500	0.8100100	-0.1426400	0.2995700	0.8183100	0.0491700	0.2402200	0.5014700	0.1287500	0.3559800	0.2763200	0.1606500	0.3003700	0.8106200	-0.3287100	0.2597100	0.5190300	-0.4195300	0.3529600	0.2323000	-0.4631600	0.2687400	0.3333600	-0.1415600	0.2579400	0.3307200	-0.0093500	0.7785600	0.3359100	-0.0123600	0.6982100	-0.1786800	-0.0032400	0.2669400	0.3344000	-0.2720700	0.7671200	0.3204500	-0.3260800	0.6865500	-0.1713500	-0.3171100	0.8947600	-0.2205200	-0.3406100	0.8453600	-0.2211000	-0.3828400	0.6115200	-0.2306100	-0.3020400	0.8979700	-0.2297600	0.0267400	0.8421200	-0.2223200	0.0660000	0.6372000	-0.2245100	-0.0217700
73	1.2000000	0.2567600	0.8102500	-0.1426400	0.3000300	0.8186300	0.0493700	0.2518300	0.5067800	0.1329500	0.3567200	0.2762400	0.1609100	0.3000200	0.8069900	-0.3285900	0.2607200	0.5151300	-0.4199400	0.3620000	0.2338000	-0.4594300	0.2688000	0.3290000	-0.1409800	0.2624900	0.3271800	-0.0099000	0.7782800	0.3360500	-0.0123900	0.6983100	-0.1784200	-0.0033500	0.2684600	0.3300600	-0.2644700	0.7655100	0.3237500	-0.3257900	0.6869800	-0.1747200	-0.3178000	0.8943600	-0.2210100	-0.3409200	0.8456400	-0.2207200	-0.3828200	0.6021600	-0.2337300	-0.3054600	0.8971900	-0.2301800	0.0266100	0.8423700	-0.2192900	0.0652700	0.6368800	-0.2245300	-0.0216500
74	1.2166667	0.2572900	0.8099800	-0.1427400	0.3099100	0.8194300	0.0442500	0.2643100	0.5094700	0.1359300	0.3711600	0.2762500	0.1642600	0.3006900	0.8069900	-0.3289200	0.2708000	0.5168100	-0.4236000	0.3594000	0.2339200	-0.4575600	0.2681600	0.3293300	-0.1411500	0.2604900	0.3265100	-0.0099300	0.7786100	0.3359000	-0.0124700	0.6981900	-0.1785400	-0.0032100	0.2671500	0.3303500	-0.2724200	0.7580400	0.3219700	-0.3295500	0.6870200	-0.1749000	-0.3177200	0.8947400	-0.2206200	-0.3405900	0.8453000	-0.2212100	-0.3828100	0.6114600	-0.2305300	-0.3020300	0.8981100	-0.2297300	0.0266600	0.8425500	-0.2191200	0.0652600	0.6371300	-0.2244700	-0.0217000
75	1.2333333	0.2571200	0.8060200	-0.1428600	0.3105400	0.8197500	0.0444700	0.2640400	0.5088900	0.1363200	0.3819900	0.2794300	0.1676400	0.3001300	0.8028200	-0.3284900	0.2716400	0.5168100	-0.4237600	0.3708400	0.2317200	-0.4621200	0.2581700	0.3268200	-0.1448600	0.2722000	0.3290600	-0.0146200	0.7691200	0.3339500	-0.0157600	0.6982200	-0.1784400	-0.0032900	0.2683800	0.3265500	-0.2724800	0.7655000	0.3236800	-0.3257700	0.6865800	-0.1711400	-0.3171700	0.8943500	-0.2209800	-0.3409000	0.8456000	-0.2207200	-0.3828100	0.6116100	-0.2304100	-0.3015800	0.8977900	-0.2273100	0.0258900	0.8424700	-0.2191200	0.0652400	0.6366700	-0.2246000	-0.0215300
76	1.2500000	0.2680400	0.8067700	-0.1472100	0.3104400	0.8194100	0.0442000	0.2652100	0.5054200	0.1357000	0.3787300	0.2738500	0.1672800	0.3011000	0.8028300	-0.3288100	0.2712500	0.5167100	-0.4236200	0.3747300	0.2366900	-0.4627100	0.2575900	0.3270600	-0.1450200	0.2704900	0.3282000	-0.0146400	0.7694900	0.3337500	-0.0158200	0.6980100	-0.1786400	-0.0031700	0.2671100	0.3266900	-0.2722300	0.7582700	0.3187200	-0.3291300	0.6870800	-0.1749000	-0.3177200	0.8947900	-0.2205000	-0.3405800	0.8452000	-0.2178600	-0.3822000	0.6115400	-0.2305200	-0.3020200	0.8985800	-0.2266100	0.0260000	0.8428800	-0.2158100	0.0645800	0.6369900	-0.2245900	-0.0216500
77	1.2666667	0.2682800	0.8028200	-0.1473500	0.3210100	0.8206300	0.0396900	0.2765600	0.5064800	0.1394600	0.3898900	0.2765300	0.1706600	0.3219600	0.8013200	-0.3283000	0.2721500	0.5131500	-0.4234200	0.3796300	0.2477900	-0.4654100	0.2688700	0.3253200	-0.1408200	0.2712100	0.3245800	-0.0141300	0.7691000	0.3339400	-0.0158100	0.6981200	-0.1785500	-0.0032600	0.2689200	0.3265600	-0.2726400	0.7659700	0.3201100	-0.3253200	0.6871200	-0.1746800	-0.3177800	0.8944200	-0.2209300	-0.3408400	0.8456900	-0.2206500	-0.3827600	0.6115200	-0.2305000	-0.3016100	0.8976100	-0.2271900	0.0259300	0.8426400	-0.2159300	0.0645700	0.6366600	-0.2246700	-0.0215300
78	1.2833333	0.2794800	0.8035700	-0.1436400	0.3207200	0.8172600	0.0396400	0.2769900	0.5036400	0.1395100	0.3936000	0.2736500	0.1708400	0.3229800	0.8013100	-0.3286500	0.2722200	0.5088500	-0.4235800	0.4017200	0.2493500	-0.4719400	0.2697300	0.3252900	-0.1418400	0.2709400	0.3279300	-0.0146500	0.7694000	0.3337200	-0.0159300	0.6884200	-0.1818200	-0.0063400	0.2677800	0.3304500	-0.2727100	0.7758300	0.3223800	-0.3212400	0.6870300	-0.1749800	-0.3177100	0.9024700	-0.2144400	-0.3363400	0.8451900	-0.2178200	-0.3820700	0.6120800	-0.2337500	-0.3027200	0.8985700	-0.2264900	0.0261300	0.8424600	-0.2189300	0.0653000	0.6368100	-0.2247000	-0.0216600
79	1.3000000	0.2905000	0.8008700	-0.1482900	0.3215300	0.8174300	0.0398700	0.2766900	0.5028600	0.1399700	0.3944000	0.2737300	0.1710800	0.3228700	0.8012400	-0.3284000	0.2733700	0.5051600	-0.4234300	0.4506300	0.2465600	-0.4807800	0.2709600	0.3249100	-0.1417600	0.2874900	0.3264500	-0.0118700	0.7691500	0.3303000	-0.0162300	0.6885100	-0.1816200	-0.0064400	0.2800600	0.3325000	-0.2689600	0.7748200	0.3189000	-0.3209600	0.6877600	-0.1782500	-0.3184300	0.9021300	-0.2148100	-0.3366600	0.8455200	-0.2172900	-0.3820600	0.6119600	-0.2335800	-0.3022900	0.8978500	-0.2270700	0.0260500	0.8427700	-0.2159100	0.0646300	0.6371600	-0.2289500	-0.0222300
80	1.3166667	0.2910400	0.8004500	-0.1483500	0.3213600	0.8125300	0.0393300	0.2774800	0.5034600	0.1396800	0.4090800	0.2706200	0.1746200	0.3239300	0.7975800	-0.3288100	0.2840200	0.5028300	-0.4274000	0.4530900	0.2429100	-0.4800600	0.2702800	0.3251400	-0.1418500	0.2855300	0.3256500	-0.0118800	0.7694300	0.3300800	-0.0163400	0.6907600	-0.1816300	-0.0076900	0.2787500	0.3326300	-0.2686100	0.7757600	0.3192500	-0.3207200	0.6871500	-0.1820500	-0.3176400	0.9025000	-0.2144500	-0.3363000	0.8451800	-0.2178200	-0.3820400	0.6119500	-0.2336800	-0.3027000	0.8987000	-0.2266500	0.0262200	0.8428100	-0.2158600	0.0647100	0.6374400	-0.2289600	-0.0223200
81	1.3333333	0.3021800	0.7941100	-0.1527800	0.3321500	0.8137000	0.0349300	0.2890900	0.5004500	0.1429000	0.4064400	0.2401900	0.1760400	0.3339800	0.7983800	-0.3243400	0.2855900	0.4913100	-0.4272700	0.4531900	0.2350800	-0.4801800	0.2711700	0.3248200	-0.1417700	0.2854300	0.3222700	-0.0113300	0.7689800	0.3268000	-0.0159500	0.6896200	-0.1852800	-0.0070900	0.2803000	0.3324100	-0.2689200	0.7747300	0.3191300	-0.3207000	0.6868100	-0.1782800	-0.3170500	0.9021300	-0.2148700	-0.3366200	0.8372300	-0.2203700	-0.3786100	0.6120700	-0.2334500	-0.3022000	0.8976500	-0.2271600	0.0260500	0.8425600	-0.2160100	0.0646200	0.6370700	-0.2290100	-0.0221500
82	1.3500000	0.3244200	0.7959100	-0.1533200	0.3430300	0.8064800	0.0380000	0.2897900	0.5009900	0.1425200	0.4250000	0.2320000	0.1803800	0.3348000	0.7944600	-0.3243600	0.2965000	0.4932000	-0.4310400	0.4646600	0.2412200	-0.4829900	0.2704200	0.3252900	-0.1416700	0.2830500	0.3217900	-0.0110500	0.7690500	0.3266500	-0.0160100	0.6894700	-0.1854100	-0.0070000	0.2900300	0.3349400	-0.2642300	0.7671300	0.3174700	-0.3168900	0.6868900	-0.1784700	-0.3169900	0.9025300	-0.2144500	-0.3362900	0.8451800	-0.2178200	-0.3820100	0.6210700	-0.2272400	-0.3059000	0.8986000	-0.2265900	0.0261600	0.8427300	-0.2158700	0.0646300	0.6289000	-0.2320900	-0.0181100
